<svg xmlns="http://www.w3.org/2000/svg" xmlns:xlink="http://www.w3.org/1999/xlink" version="1.1" id="Capa_1" x="0px" y="0px" viewBox="0 0 512 512" style="enable-background:new 0 0 512 512;" xml:space="preserve" width="512" height="512" class=""><g><g>
	<path style="fill:#455256;" d="M88.29,461.735c-2.005,0-4.011-0.765-5.542-2.295c-3.061-3.062-3.061-8.023,0-11.083l11.213-11.213   c3.062-3.059,8.023-3.059,11.083,0c3.061,3.062,3.061,8.023,0,11.083l-11.213,11.213C92.301,460.969,90.295,461.735,88.29,461.735z   " data-original="#455256" class=""></path>
	<path style="fill:#455256;" d="M188.613,461.735c-2.005,0-4.011-0.765-5.542-2.295c-3.061-3.062-3.061-8.023,0-11.083   l11.213-11.213c3.062-3.059,8.023-3.059,11.083,0c3.061,3.062,3.061,8.023,0,11.083l-11.213,11.213   C192.625,460.969,190.618,461.735,188.613,461.735z" data-original="#455256" class=""></path>
	<path style="fill:#455256;" d="M113.377,486.822c-2.005,0-4.011-0.765-5.542-2.295c-3.061-3.062-3.061-8.023,0-11.083   l11.213-11.213c3.062-3.059,8.023-3.059,11.083,0c3.061,3.062,3.061,8.023,0,11.083l-11.213,11.213   C117.387,486.056,115.381,486.822,113.377,486.822z" data-original="#455256" class=""></path>
	<path style="fill:#455256;" d="M213.7,486.822c-2.005,0-4.011-0.765-5.541-2.295c-3.062-3.06-3.062-8.023-0.001-11.082   l11.212-11.213c3.062-3.062,8.024-3.06,11.082-0.001c3.062,3.06,3.062,8.023,0.001,11.082l-11.212,11.213   C217.712,486.056,215.705,486.822,213.7,486.822z" data-original="#455256" class=""></path>
</g><path style="fill:#071A46" d="M203.76,292.471L203.76,292.471l100.972-71.973c0.919-0.648,1.776-1.337,2.581-2.069l-8.422-43.896  c-7.847-2.936-16.959-2.09-24.325,3.093l-50.625,36.707" data-original="#0076A5" class="" data-old_color="#0F296A"></path><path style="fill:#0F296A" d="M224.153,256.496l-0.168-53.713c-0.052-16.189-8.367-30.437-20.938-38.741l-55.37-16.351  c-32.569,47.522-46.54,105.681-38.703,163.244c1.379,10.156,4.409,19.937,8.903,28.985c4.493,9.059,10.449,17.387,17.69,24.639  l8.819,8.819l-61.921,61.618l34.952,35.746l0.146-0.157l21.42,21.723l3.981-3.971c11.88-11.891,11.88-31.159,0-43.039l54.45-54.241  c9.759-9.78,9.759-25.6,0-35.359l-11.901-11.901c-5.914-5.925-1.724-16.039,6.646-16.039c2.006,0,4.42,0.575,6.677,1.515  c2.267,0.94,4.378,2.226,5.799,3.657l40.448,40.448l-61.921,61.618l34.952,35.746l0.146-0.157l21.42,21.723l3.971-3.971  c11.849-11.86,11.88-31.044,0.094-42.935l54.366-54.345c9.759-9.78,9.759-25.6,0-35.359l-46.78-46.78" data-original="#0387D8" class="" data-old_color="#0f296a"></path><g>
	<path style="fill:#071A46" d="M135.889,470.589l-0.146,0.156l-34.952-35.746l53.08-52.82c4.879-4.856,4.889-12.75,0.022-17.617   l0,0c-7.241-7.251-13.197-15.578-17.69-24.639c-4.493-9.048-7.523-18.829-8.903-28.984c-7.59-55.752,5.276-112.061,35.683-158.725   l-15.306-4.519c-32.569,47.522-46.54,105.682-38.703,163.244c1.379,10.156,4.409,19.937,8.903,28.984   c4.493,9.06,10.449,17.388,17.69,24.639l8.819,8.819l-61.921,61.618l34.952,35.746l0.146-0.156l21.42,21.723l3.981-3.972   c1.813-1.814,3.345-3.801,4.605-5.906L135.889,470.589z" data-original="#0076A5" class="" data-old_color="#0F296A"></path>
	<path style="fill:#071A46" d="M236.586,470.589l-0.146,0.156l-34.952-35.746l53.08-52.82c4.88-4.856,4.889-12.75,0.022-17.617   l-31.629-31.629c-1.421-1.432-3.532-2.718-5.799-3.657c-2.257-0.94-4.671-1.515-6.677-1.515c-3.263,0-5.878,1.546-7.519,3.774   c0.621,0.445,1.187,0.912,1.67,1.398l40.448,40.448l-61.921,61.618l34.952,35.746l0.146-0.156l21.42,21.723l3.971-3.972   c1.815-1.815,3.349-3.806,4.609-5.912L236.586,470.589z" data-original="#0076A5" class="" data-old_color="#0F296A"></path>
</g><g>
	<path style="fill:#455256;" d="M158.649,429.679L142.965,445.3c11.88,11.88,11.88,31.149,0,43.039l-3.981,3.971l-21.42-21.723   l-0.146,0.157l-34.952-35.746l40.856-40.647L158.649,429.679z" data-original="#455256" class=""></path>
	<path style="fill:#455256;" d="M243.749,445.402c11.786,11.891,11.755,31.074-0.094,42.935l-3.971,3.971l-21.42-21.723   l-0.146,0.157l-25.913-26.509l-9.038-9.237l41.096-40.888l9.132,9.132l26.269,26.258L243.749,445.402z" data-original="#455256" class=""></path>
</g><path style="fill:#D1B182;" d="M216.389,200.404c2.567,0,5.103-0.147,7.596-0.451c-0.95-15.009-9.006-28.094-20.838-35.91  l-48.586-14.345v3.547h0.01C161.985,180.42,186.855,200.404,216.389,200.404z" data-original="#D1B182" class=""></path><polygon style="fill:#C1C1C1" points="315.349,512 294.975,394.778 335.723,366.567 291.84,137.746 341.993,123.64 329.455,0   431.548,0 431.548,512 " data-original="#A56247" class="" data-old_color="#A56247"></polygon><circle style="fill:#F9DCA2;" cx="191.561" cy="100.989" r="64.073" data-original="#F9DCA2" class=""></circle><path style="fill:#E5C691;" d="M165.099,100.99c0-28.843,19.059-53.229,45.269-61.267c-5.949-1.823-12.262-2.811-18.808-2.811  c-35.389,0-64.077,28.689-64.077,64.077s28.689,64.076,64.077,64.076c6.546,0,12.86-0.986,18.808-2.81  C184.159,154.22,165.099,129.833,165.099,100.99z" data-original="#E5C691" class=""></path><path style="fill:#D1B182;" d="M307.313,218.429c-0.805,0.731-1.661,1.421-2.581,2.069l-30.166-42.872  c7.367-5.183,16.478-6.029,24.325-3.093L307.313,218.429z" data-original="#D1B182" class=""></path><g>
	<path style="fill:#455256;" d="M211.968,115.017c-3.173,0-5.747-2.574-5.747-5.747v-9.048c0-3.173,2.574-5.747,5.747-5.747   c3.173,0,5.747,2.574,5.747,5.747v9.048C217.715,112.444,215.141,115.017,211.968,115.017z" data-original="#455256" class=""></path>
	<path style="fill:#455256;" d="M240.293,109.774c-3.173,0-5.747-2.574-5.747-5.747V94.98c0-3.173,2.574-5.747,5.747-5.747   s5.747,2.574,5.747,5.747v9.047C246.04,107.2,243.466,109.774,240.293,109.774z" data-original="#455256" class=""></path>
</g><g>
	<path style="fill:#29B59E" d="M107.239,300.64c-4.29,0-7.791-3.457-7.835-7.758c-0.043-4.328,3.429-7.871,7.758-7.915   l69.743-0.702c4.33-0.059,7.87,3.429,7.915,7.758c0.043,4.328-3.429,7.871-7.758,7.915l-69.743,0.702   C107.293,300.64,107.266,300.64,107.239,300.64z" data-original="#CC1D36" class="" data-old_color="#0F7666"></path>
	<polygon style="fill:#29B59E" points="312.943,0.003 250.907,265.91 235.641,262.347 296.863,0.003  " data-original="#CC1D36" class="" data-old_color="#0F7666"></polygon>
</g><g>
	<path style="fill:#071A46" d="M168.315,207.638c13.62,13.62,34.666,36.072,55.759,23.532s14.824,15.324,14.824,15.324   l-7.662,34.134h-66.177l-9.056-61.997" data-original="#0076A5" class="" data-old_color="#0F296A"></path>
	<path style="fill:#071A46" d="M198.272,161.022l-18.858-31.297l4.378-46.009L168.19,82.23l-3.382,35.543l-24.663-16.424   l-8.687,13.045l34.104,22.711l19.286,32.006c1.471,2.442,4.063,3.793,6.72,3.793c1.377,0,2.772-0.364,4.037-1.125   C199.312,169.545,200.505,164.729,198.272,161.022z" data-original="#0076A5" class="" data-old_color="#0F296A"></path>
</g><polygon style="fill:#959494" points="362.585,0 382.438,244.406 358.405,254.855 396.021,512 431.548,512 431.548,0 " data-original="#8E4E38" class="" data-old_color="#CDB2A9"></polygon><path style="fill:#0F296A" d="M168.315,207.638l18.718,48.87l68.252-0.024c14.694-0.004,27.079,12.018,26.805,26.71  c-0.265,14.242-11.893,25.709-26.2,25.713l-86.876,0.028c-1.732,0-3.438-0.169-5.094-0.496c-8.726-1.724-16.126-7.815-19.391-16.339  l-25.169-65.71c-5.177-13.519,1.583-28.675,15.102-33.853l0,0C147.98,187.359,163.138,194.12,168.315,207.638z" data-original="#0387D8" class="" data-old_color="#0f296a"></path><path style="fill:#071A46" d="M268.951,295.846l-86.877,0.028c-1.732,0-3.438-0.169-5.094-0.497  c-8.726-1.724-16.126-7.815-19.391-16.339l-25.17-65.712c-2.608-6.809-2.184-14.032,0.603-20.187  c-12.551,5.673-18.655,20.22-13.664,33.249l25.169,65.712c3.265,8.524,10.664,14.614,19.391,16.339  c1.656,0.327,3.361,0.497,5.094,0.497l86.877-0.028c10.617-0.003,19.753-6.321,23.871-15.398  C276.465,295.005,272.807,295.845,268.951,295.846z" data-original="#0076A5" class="" data-old_color="#0F296A"></path><path style="fill:#D1B182;" d="M282.087,283.192c-0.261,14.242-11.891,25.715-26.196,25.715h-1.996v-52.424h1.39  c12.309,0,22.988,8.432,25.976,19.811C281.846,278.49,282.129,280.809,282.087,283.192z" data-original="#D1B182" class=""></path><path style="fill:#F9DCA2;" d="M281.261,276.295c-2.905,11.296-13.166,19.656-25.37,19.656h-1.996v-39.467h1.39  C267.594,256.484,278.274,264.917,281.261,276.295z" data-original="#F9DCA2" class=""></path><g>
	<polygon style="fill:#354144;" points="233.395,403.24 192.205,444.232 183.167,434.995 224.262,394.107  " data-original="#354144" class=""></polygon>
	<polygon style="fill:#354144;" points="132.694,403.244 91.504,444.235 82.465,434.998 123.561,394.11  " data-original="#354144" class=""></polygon>
</g><path style="fill:#158876" d="M246.413,67.849c0,0-36.801,9.173-81.314,32.664c-11.149,5.883-22.779,12.664-34.44,20.428  c-2.069-6.28-3.176-12.988-3.176-19.947c0-35.391,28.693-64.084,64.073-64.084c6.52,0,12.821,0.972,18.745,2.79  c0.021,0.01,0.031,0.01,0.052,0.01C225.545,44.37,238.336,54.515,246.413,67.849z" data-original="#E52E40" class="active-path" data-old_color="#0A554A"></path><path style="fill:#29B59E" d="M210.364,39.721c-26.06,7.992-45.056,32.152-45.265,60.792c-11.149,5.883-22.779,12.664-34.44,20.428  c-2.069-6.28-3.176-12.988-3.176-19.947c0-35.391,28.693-64.084,64.073-64.084c6.52,0,12.821,0.972,18.745,2.79  c0.021,0.01,0.031,0.01,0.052,0.01L210.364,39.721z" data-original="#CC1D36" class="" data-old_color="#0F7666"></path></g> </svg>