<svg xmlns="http://www.w3.org/2000/svg" xmlns:xlink="http://www.w3.org/1999/xlink" version="1.1" id="Capa_1" x="0px" y="0px" viewBox="0 0 480.083 480.083" style="enable-background:new 0 0 480.083 480.083;" xml:space="preserve" width="512" height="512" class=""><g><g>
	<path style="fill:#0F296A" d="M456.042,304.003c8.837,0,16,7.163,16,16s-7.163,16-16,16h-28   c-11.046,0.018-20.015-8.921-20.033-19.967c-0.018-11.046,8.921-20.015,19.967-20.033c7.774-0.013,14.85,4.48,18.146,11.52   C448.934,305.26,452.432,304.019,456.042,304.003z" data-original="#33A1EE" class="" data-old_color="#0f296a"></path>
	<path style="fill:#0F296A" d="M420.042,176.003c11.046,0,20,8.954,20,20s-8.954,20-20,20c-6.073,0.013-11.807-2.795-15.52-7.6   c-12.239,10.52-30.454,10.071-42.16-1.04c-8.48,10.187-23.612,11.572-33.8,3.092c-10.187-8.48-11.572-23.612-3.092-33.8   c7.223-8.678,19.518-11.148,29.532-5.932c7.29-16.051,26.212-23.153,42.263-15.862c9.042,4.107,15.657,12.188,17.897,21.862   C416.742,176.238,418.388,175.995,420.042,176.003L420.042,176.003z" data-original="#33A1EE" class="" data-old_color="#0f296a"></path>
</g><path style="fill:#86DAF1;" d="M386.682,442.723c3.092,12.212,4.65,24.762,4.64,37.36h-47.28v-8.08L386.682,442.723z" data-original="#86DAF1" class=""></path><path style="fill:#0F296A" d="M355.482,292.563l20,119.92c-9.752-19.581-23.582-36.847-40.56-50.64c-2.64-2.16-5.44-4.24-8.24-6.16  l-18.32-57.52l27.68,13.84L355.482,292.563z" data-original="#168DE2" class="" data-old_color="#0f296a"></path><path style="fill:#03AA6F;" d="M375.482,412.483c4.828,9.64,8.584,19.781,11.2,30.24l-42.64,29.28l-120-8l-56,8l3.2-36.56l31.52-42  l63.12-31.6h69.04C351.9,375.636,365.729,392.902,375.482,412.483L375.482,412.483z" data-original="#03AA6F" class=""></path><path style="fill:#DDF7FF;" d="M352.042,272.003l3.44,20.56l-19.44,19.44l-27.68-13.84l-7.92-25.04l3.6-1.12H352.042z" data-original="#DDF7FF" class=""></path><path style="fill:#0F296A" d="M308.362,298.163l18.32,57.52c-25.348-17.914-55.601-27.579-86.64-27.68h-0.72  c-15.973-0.001-31.847,2.51-47.04,7.44c-11.132,3.597-21.795,8.511-31.76,14.64l18.8-79.12l5.44-22.8l7.6-31.76l23.68,31.6l24-32  l24,24l15.76-31.52l20.64,64.64L308.362,298.163z" data-original="#168DE2" class="" data-old_color="#0f296a"></path><path style="fill:#DDF7FF;" d="M272.042,184.003l7.76,24.48l-15.76,31.52l-24-24l-24,32l-23.68-31.6l7.68-32.4h24h32H272.042z" data-original="#DDF7FF" class=""></path><path style="fill:#03AA6F;" d="M240.042,328.003l-32,40l-57.84,25.44h-31.6l-2.72-2c11.939-16.656,27.123-30.725,44.64-41.36  c9.965-6.129,20.628-11.043,31.76-14.64c15.193-4.93,31.067-7.441,47.04-7.44H240.042z" data-original="#03AA6F" class=""></path><path style="fill:#DDF7FF;" d="M179.322,270.963l-23.92,7.36l-19.92-27.84l0.56-2.48h48l0.72,0.16L179.322,270.963z" data-original="#DDF7FF" class=""></path><path style="fill:#0F296A" d="M128.042,248.003c0.042,13.211-10.633,23.954-23.844,23.996c-7.139,0.023-13.915-3.144-18.476-8.636  c-11.706,11.111-29.921,11.56-42.16,1.04c-3.713,4.805-9.447,7.613-15.52,7.6c-11.046,0-20-8.954-20-20c0-11.046,8.954-20,20-20  c1.654-0.008,3.299,0.235,4.88,0.72c3.977-17.175,21.123-27.874,38.298-23.897c9.675,2.24,17.756,8.855,21.862,17.897  c11.69-6.115,26.124-1.595,32.239,10.095C127.126,240.269,128.06,244.109,128.042,248.003z" data-original="#33A1EE" class="" data-old_color="#0f296a"></path><path style="fill:#86DAF1;" d="M344.042,480.083h-208v-0.08l-6.88-12.96l-40-10l4.4-19.76c4.782-16.437,12.33-31.939,22.32-45.84  l2.72,2h31.6l57.84-25.44l32-40c31.039,0.101,61.292,9.766,86.64,27.68c2.8,1.92,5.6,4,8.24,6.16h-69.04l-63.12,31.6l-31.52,42  l-3.2,36.56l56-8l120,8V480.083z" data-original="#86DAF1" class=""></path><path style="fill:#0F296A" d="M93.562,437.283l41.92-186.8l19.92,27.84l23.92-7.36l-18.8,79.12  C128.094,369.767,104.207,400.874,93.562,437.283L93.562,437.283z" data-original="#168DE2" class="" data-old_color="#0f296a"></path><path style="fill:#86DAF1;" d="M93.562,437.283l-4.4,19.76C90.165,450.362,91.635,443.759,93.562,437.283z" data-original="#86DAF1" class=""></path><path style="fill:#03AA6F;" d="M136.042,480.003v0.08h-48.64c0.011-7.713,0.599-15.415,1.76-23.04l40,10L136.042,480.003z" data-original="#03AA6F" class=""></path><g>
	<path style="fill:#28A88A" d="M224.042,120.003h-0.568c-2.316-0.17-4.445-1.337-5.832-3.2l-24-32l12.8-9.6l18.464,24.624   l25.48-25.48l11.312,11.312l-32,32C228.198,119.159,226.163,120.003,224.042,120.003L224.042,120.003z" data-original="#00336B" class="" data-old_color="#15DABD"></path>
	<path style="fill:#28A88A" d="M168.042,256.003h-24c-4.418,0.001-8.001-3.58-8.002-7.998c0-0.86,0.138-1.714,0.41-2.53   l15.04-45.12l-22.8-53.2l14.704-6.304l24,56c0.773,1.8,0.858,3.821,0.24,5.68l-12.496,37.472h12.904V256.003z" data-original="#00336B" class="" data-old_color="#15DABD"></path>
</g><path style="fill:#454545;" d="M248.042,24.003h16v160h-16V24.003z" data-original="#454545" class=""></path><path style="fill:#15DABD" d="M206.346,75.083c-1.515-1.943-3.841-3.079-6.304-3.08h-48c-3.669,0-6.868,2.497-7.76,6.056l-16,64  c-1.074,4.286,1.53,8.631,5.816,9.704c0.636,0.159,1.288,0.24,1.944,0.24h48c3.669,0,6.868-2.497,7.76-6.056l16-64  C208.399,79.557,207.862,77.025,206.346,75.083z" data-original="#00448F" class="" data-old_color="#15dabd"></path><path style="fill:#F9C3A7;" d="M200.042,0.003h-24c-17.673,0-32,14.327-32,32s14.327,32,32,32s32-14.327,32-32v-24  C208.042,3.585,204.46,0.003,200.042,0.003z" data-original="#F9C3A7" class=""></path><g>
	<path style="fill:#28A88A" d="M224.042,192.003c-3.908-0.001-7.243-2.826-7.888-6.68l-6.224-37.32l-38.312,19.2l-7.152-14.32   l48-24c3.953-1.973,8.757-0.369,10.731,3.584c0.355,0.711,0.602,1.471,0.733,2.256l5.448,32.672l5.008-5.008l11.312,11.312l-16,16   C228.191,191.185,226.157,192.013,224.042,192.003z" data-original="#00336B" class="" data-old_color="#15DABD"></path>
	<path style="fill:#28A88A" d="M203.354,120.003l-4.048-4.056l-43.952-43.944h-3.312c-3.669,0-6.868,2.497-7.76,6.056l-1.104,4.4   l51.2,51.2c0.12,0.12,0.288,0.168,0.416,0.28c1.441,1.302,3.306,2.036,5.248,2.064h56v-16H203.354z" data-original="#00336B" class="" data-old_color="#15DABD"></path>
</g><path style="fill:#20E6CA" d="M331.289,32.691l-72-32c-4.038-1.794-8.765,0.025-10.559,4.063c-0.454,1.023-0.689,2.13-0.689,3.249  v48c0.001,4.418,3.583,7.999,8.001,7.999c0.583,0,1.165-0.064,1.735-0.191l72-16c4.313-0.959,7.032-5.233,6.073-9.546  C335.3,35.789,333.607,33.721,331.289,32.691z" data-original="#D32144" class="active-path" data-old_color="#00B299"></path><path style="fill:#28A88A" d="M143.178,167.163l-2.632-15.16h27.496l3.576,15.16H143.178z" data-original="#00336B" class="" data-old_color="#15DABD"></path></g> </svg>