<?xml version="1.0" encoding="utf-8"?>
<!-- Generator: Adobe Illustrator 23.0.1, SVG Export Plug-In . SVG Version: 6.00 Build 0)  -->
<svg version="1.1" id="Layer_1" xmlns="http://www.w3.org/2000/svg" xmlns:xlink="http://www.w3.org/1999/xlink" x="0px" y="0px"
	 viewBox="0 0 600 600" style="enable-background:new 0 0 600 600;" xml:space="preserve">
<style type="text/css">
	.st0{fill:url(#SVGID_1_);}
	.st1{opacity:0.5;}
	.st2{fill:#FFFFFF;}
</style>
<linearGradient id="SVGID_1_" gradientUnits="userSpaceOnUse" x1="216.9202" y1="463.2746" x2="399.854" y2="146.4239">
	<stop  offset="0" style="stop-color:#0077BC"/>
	<stop  offset="0.4944" style="stop-color:#752F82"/>
	<stop  offset="1" style="stop-color:#DA951D"/>
</linearGradient>
<path class="st0" d="M308.4,487.8L308.4,487.8c-101,0-182.9-81.9-182.9-182.9v0c0-101,81.9-182.9,182.9-182.9h0
	c101,0,182.9,81.9,182.9,182.9v0C491.3,405.9,409.4,487.8,308.4,487.8z"/>
<g class="st1">
	<g>
		<path d="M233.2,296.8h15v-90.2h-15v-8.1h39.3v8.1h-15v90.2h15v8.1h-39.3V296.8z"/>
		<path d="M312.4,214.1v82.6h14.2v8.1h-37.2v-8.1h14.2v-90.2h-14.2v-8.1h22.3l65.5,87.5v-79.4H363v-8.1h36.7v8.1H386v98.8h-5.2
			L312.4,214.1z"/>
		<path d="M233.2,409.9h15v-90.2h-15v-8.1h39.3v8.1h-15v90.2h15v8.1h-39.3V409.9z"/>
		<path d="M289.5,409.9h14.2v-90.2h-14.2v-8.1h39.6c36.5,0,61.1,20.7,61.1,52.1c0,31.9-23,54.3-60.8,54.3h-39.9V409.9z M330.2,409.9
			c33.8,0,50.6-19.2,50.6-46.6c0-26.5-20.2-43.7-51.9-43.7h-16v90.2H330.2z"/>
	</g>
</g>
<g>
	<g>
		<path class="st2" d="M229.2,290.8h15v-90.2h-15v-8.1h39.3v8.1h-15v90.2h15v8.1h-39.3V290.8z"/>
		<path class="st2" d="M308.4,208.1v82.6h14.2v8.1h-37.2v-8.1h14.2v-90.2h-14.2v-8.1h22.3l65.5,87.5v-79.4H359v-8.1h36.7v8.1H382
			v98.8h-5.2L308.4,208.1z"/>
		<path class="st2" d="M229.2,403.9h15v-90.2h-15v-8.1h39.3v8.1h-15v90.2h15v8.1h-39.3V403.9z"/>
		<path class="st2" d="M285.5,403.9h14.2v-90.2h-14.2v-8.1h39.6c36.5,0,61.1,20.7,61.1,52.1c0,31.9-23,54.3-60.8,54.3h-39.9V403.9z
			 M326.2,403.9c33.8,0,50.6-19.2,50.6-46.6c0-26.5-20.2-43.7-51.9-43.7h-16v90.2H326.2z"/>
	</g>
</g>
</svg>
