<?xml version="1.0" encoding="utf-8"?>
<!-- Generator: Adobe Illustrator 23.0.1, SVG Export Plug-In . SVG Version: 6.00 Build 0)  -->
<svg version="1.1" id="Layer_1" xmlns="http://www.w3.org/2000/svg" xmlns:xlink="http://www.w3.org/1999/xlink" x="0px" y="0px"
	 viewBox="0 0 379.4 379.4" style="enable-background:new 0 0 379.4 379.4;" xml:space="preserve">
<style type="text/css">
	.st0{fill:url(#SVGID_1_);}
	.st1{opacity:0.5;}
	.st2{fill:#FFFFFF;}
</style>
<linearGradient id="SVGID_1_" gradientUnits="userSpaceOnUse" x1="101.0492" y1="347.4036" x2="283.983" y2="30.5529">
	<stop  offset="0" style="stop-color:#0077BC"/>
	<stop  offset="0.4944" style="stop-color:#752F82"/>
	<stop  offset="1" style="stop-color:#DA951D"/>
</linearGradient>
<path class="st0" d="M192.5,371.9L192.5,371.9C91.5,371.9,9.6,290,9.6,189v0C9.6,88,91.5,6.1,192.5,6.1h0
	c101,0,182.9,81.9,182.9,182.9v0C375.4,290,293.5,371.9,192.5,371.9z"/>
<g class="st1">
	<g>
		<path d="M117.3,180.9h15V90.7h-15v-8.1h39.3v8.1h-15v90.2h15v8.1h-39.3V180.9z"/>
		<path d="M196.6,98.3v82.6h14.2v8.1h-37.2v-8.1h14.2V90.7h-14.2v-8.1h22.3l65.5,87.5V90.7h-14.2v-8.1h36.7v8.1h-13.7v98.8h-5.2
			L196.6,98.3z"/>
		<path d="M117.3,294.1h15v-90.2h-15v-8.1h39.3v8.1h-15v90.2h15v8.1h-39.3V294.1z"/>
		<path d="M173.6,294.1h14.2v-90.2h-14.2v-8.1h39.6c36.5,0,61.1,20.7,61.1,52.1c0,31.9-23,54.3-60.8,54.3h-39.9V294.1z M214.3,294.1
			c33.8,0,50.6-19.2,50.6-46.6c0-26.5-20.2-43.7-51.9-43.7h-16v90.2H214.3z"/>
	</g>
</g>
<g>
	<g>
		<path class="st2" d="M113.3,174.9h15V84.7h-15v-8.1h39.3v8.1h-15v90.2h15v8.1h-39.3V174.9z"/>
		<path class="st2" d="M192.6,92.3v82.6h14.2v8.1h-37.2v-8.1h14.2V84.7h-14.2v-8.1h22.3l65.5,87.5V84.7h-14.2v-8.1h36.7v8.1h-13.7
			v98.8h-5.2L192.6,92.3z"/>
		<path class="st2" d="M113.3,288.1h15v-90.2h-15v-8.1h39.3v8.1h-15v90.2h15v8.1h-39.3V288.1z"/>
		<path class="st2" d="M169.6,288.1h14.2v-90.2h-14.2v-8.1h39.6c36.5,0,61.1,20.7,61.1,52.1c0,31.9-23,54.3-60.8,54.3h-39.9V288.1z
			 M210.3,288.1c33.8,0,50.6-19.2,50.6-46.6c0-26.5-20.2-43.7-51.9-43.7h-16v90.2H210.3z"/>
	</g>
</g>
</svg>
